/* XPM */
static char *_14d818e02c6409d9575305af40df241DDsLZb91kTvWxGb0[] = {
/* columns rows colors chars-per-pixel */
"16 16 206 2 ",
"   c None",
".  c #433421",
"X  c #463522",
"o  c #4C3722",
"O  c #473823",
"+  c #4E3D26",
"@  c #4F3D27",
"#  c #4F3F27",
"$  c #513C25",
"%  c #523F27",
"&  c #543F27",
"*  c #543F28",
"=  c #544027",
"-  c #524029",
";  c #544128",
":  c #544029",
">  c #574029",
",  c #554229",
"<  c #574228",
"1  c #5A4228",
"2  c #59432A",
"3  c #5A442B",
"4  c #5C442B",
"5  c #5D452B",
"6  c #5F472C",
"7  c #58482D",
"8  c #59482D",
"9  c #5B492D",
"0  c #5F4D2F",
"q  c #5B4936",
"w  c #5C4B36",
"e  c #624A2E",
"r  c #624B2F",
"t  c #654B2E",
"y  c #664C2E",
"u  c #634B30",
"i  c #674D30",
"p  c #674E31",
"a  c #684E31",
"s  c #6B4F31",
"d  c #645131",
"f  c #655233",
"g  c #6A5032",
"h  c #6F5333",
"j  c #6F5434",
"k  c #6C5634",
"l  c #63513A",
"z  c #6F583E",
"x  c #705132",
"c  c #715333",
"v  c #725534",
"b  c #755636",
"n  c #755737",
"m  c #725B3A",
"M  c #705A3E",
"N  c #745B3E",
"B  c #795D39",
"V  c #7B5F39",
"C  c #7B5E3A",
"Z  c #7F5C38",
"A  c #7F5E39",
"S  c #7F5E3A",
"D  c #795E3F",
"F  c #72603B",
"G  c #705B41",
"H  c #765D40",
"J  c #7E6A48",
"K  c #805D38",
"L  c #815E3A",
"P  c #82613B",
"I  c #83613B",
"U  c #85603A",
"Y  c #82613C",
"T  c #86623D",
"R  c #88633B",
"E  c #8A653F",
"W  c #8D673F",
"Q  c #856442",
"!  c #8D6740",
"~  c #8F6B43",
"^  c #816B49",
"/  c #916B40",
"(  c #906B41",
")  c #926C43",
"_  c #956C41",
"`  c #966E42",
"'  c #986F44",
"]  c #847145",
"[  c #867145",
"{  c #8C7345",
"}  c #8B7446",
"|  c #967044",
" . c #987146",
".. c #9A7146",
"X. c #997347",
"o. c #9D7244",
"O. c #9F7244",
"+. c #9F7345",
"@. c #9A7446",
"#. c #9F7446",
"$. c #927A49",
"%. c #90784B",
"&. c #9E7849",
"*. c #A37747",
"=. c #A37847",
"-. c #A47948",
";. c #A47B4A",
":. c #A17E4C",
">. c #A57D4E",
",. c #AB7C4B",
"<. c #AE7D4B",
"1. c #AB7F4C",
"2. c #AE7F4C",
"3. c #978D59",
"4. c #9D8D5E",
"5. c #A5804D",
"6. c #AD814D",
"7. c #AE814D",
"8. c #AE814E",
"9. c #B6834E",
"0. c #B7864F",
"q. c #BB864F",
"w. c #BA874F",
"e. c #AB8150",
"r. c #A98350",
"t. c #B98851",
"y. c #BA8B53",
"u. c #BF8B53",
"i. c #BA8B54",
"p. c #B98F57",
"a. c #BC8F57",
"s. c #B48E59",
"d. c #A69057",
"f. c #A59159",
"g. c #A5945A",
"h. c #BB9057",
"j. c #B6965C",
"k. c #BC9258",
"l. c #BF965C",
"z. c #B79A5B",
"x. c #B1985E",
"c. c #B79B5C",
"v. c #BB9B5F",
"b. c #BF9B5F",
"n. c #BD9C5F",
"m. c #9E9362",
"M. c #A7A06C",
"N. c #A4A06F",
"B. c #BBAA69",
"V. c #BCB071",
"C. c #C18D52",
"Z. c #C48F55",
"A. c #C39055",
"S. c #C59157",
"D. c #C59358",
"F. c #C79458",
"G. c #C79559",
"H. c #C6975B",
"J. c #C8955A",
"K. c #CC9659",
"L. c #C99B5D",
"P. c #D7A25F",
"I. c #C0AD68",
"U. c #C6AD68",
"Y. c #C9AE6C",
"T. c #D0A160",
"R. c #D2A261",
"E. c #D4A362",
"W. c #D4A663",
"Q. c #D5A864",
"!. c #DAA863",
"~. c #D3AD69",
"^. c #D5AC69",
"/. c #C6B06C",
"(. c #CAB56F",
"). c #D0B46B",
"_. c #DEB068",
"`. c #D8BA6F",
"'. c #C2B674",
"]. c #CDBE78",
"[. c #D4B570",
"{. c #D8BA74",
"}. c #E0AF67",
"|. c #E4B46B",
" X c #E3B56D",
".X c #E2B76E",
"XX c #E6BB6E",
"oX c #E9BA6E",
"OX c #E3BD73",
"+X c #CEC37D",
"@X c #E5C173",
"#X c #E3C376",
"$X c #EDC073",
"%X c #EDC475",
"&X c #E1CA7B",
"*X c #ECC97A",
"=X c #F2CF7B",
"-X c #DCCF83",
";X c #D5D18D",
":X c #DBD492",
">X c #D9D694",
",X c #E7D583",
"<X c #E6D785",
"1X c #E7DC8F",
"2X c #FCF19B",
"3X c #F8F4A2",
/* pixels */
"          3.g.d.} d 8           ",
"      ] V.>X+XB.f.F 8 0 @       ",
"    ] I.;X:X1X<XU.$.d 8 . @     ",
"  B v.(.-X2X3X,X).z.} k O %     ",
"  :.v.#X/.].'.&X{.$.m B F 1 %   ",
"P 5.b.%X@Xx.Y.=Xb.5.Z.8.-.K s o ",
"| X.L._.XXj.~.oXh.5.S.t.q.<.L c ",
"`  .K.P.!.h.Q.|.}.k.>.8.C.q.T Z ",
"`  .Z.F.G.H.E.$XXX XE.J.C.9.W L ",
"! ` 0.D N M G OXm.4.^ l q ,.*.L ",
"b U *.~ Q M s.*XN.N.^ H w ) o.y ",
"  h b #.#.&.h.^.{.[.l.t.8.E R   ",
"  ; y c ~ *.8.u.T.E.D.2.P Z 1   ",
"    1 6 y v K W ;. .P k s y     ",
"      * ; % * p g 1 4 r ;       ",
"          X & 6 r ; -           "
};
