/* XPM */
static char *_99b93361fdc4772b247c031d49db2e9QybT0bojWYO7Rxq5[] = {
/* columns rows colors chars-per-pixel */
"32 32 193 2 ",
"   c None",
".  c #382D1D",
"X  c #2F2D2B",
"o  c #36312C",
"O  c #40311F",
"+  c #423321",
"@  c #493723",
"#  c #4D3B25",
"$  c #40382E",
"%  c #493B26",
"&  c #523E26",
"*  c #523F29",
"=  c #4A3E31",
"-  c #4F4129",
";  c #544027",
":  c #554229",
">  c #5B452B",
",  c #5D492E",
"<  c #4E4233",
"1  c #534535",
"2  c #5B4B33",
"3  c #544A39",
"4  c #5C4E3A",
"5  c #58533F",
"6  c #61462C",
"7  c #634A2E",
"8  c #644D31",
"9  c #6A4F31",
"0  c #604E39",
"q  c #655233",
"w  c #6C5233",
"e  c #68553D",
"r  c #6A563D",
"t  c #725434",
"y  c #795734",
"u  c #765836",
"i  c #7B5A36",
"p  c #745738",
"a  c #745B3D",
"s  c #7B5C3A",
"d  c #7D633C",
"f  c #745D40",
"g  c #785E40",
"h  c #676248",
"j  c #7C6342",
"k  c #7D6B42",
"l  c #71694A",
"z  c #71705A",
"x  c #815F3A",
"c  c #84623C",
"v  c #8A653D",
"b  c #8C693F",
"n  c #836643",
"m  c #896640",
"M  c #856B42",
"N  c #8D6A43",
"B  c #946C42",
"V  c #9A6F43",
"C  c #8B7345",
"Z  c #8C7B4A",
"A  c #877146",
"S  c #957246",
"D  c #9B7345",
"F  c #94744B",
"G  c #9E7649",
"H  c #937C4A",
"J  c #9D7B4D",
"K  c #8A7951",
"L  c #967F54",
"P  c #A17546",
"I  c #A57748",
"U  c #A47B4A",
"Y  c #AB7D4B",
"T  c #A47847",
"R  c #B07F4B",
"E  c #A27F50",
"W  c #94814E",
"Q  c #9B824E",
"!  c #8E8150",
"~  c #998551",
"^  c #9F8E57",
"/  c #9A8B59",
"(  c #9E925C",
")  c #AC814D",
"_  c #B4834D",
"`  c #BA864F",
"'  c #BF894F",
"]  c #A58554",
"[  c #AB8451",
"{  c #A48B56",
"}  c #A78D5A",
"|  c #B28651",
" . c #B58A54",
".. c #BC8B53",
"X. c #BB8752",
"o. c #AB955D",
"O. c #AA9B5F",
"+. c #B2945B",
"@. c #BD935A",
"#. c #B99D5E",
"$. c #B09357",
"%. c #9E9769",
"&. c #A49861",
"*. c #A79C66",
"=. c #B09E62",
"-. c #B99D61",
";. c #AFA062",
":. c #B3A367",
">. c #BCA363",
",. c #B3A66A",
"<. c #BBAD6C",
"1. c #B2AC70",
"2. c #C28D53",
"3. c #C59256",
"4. c #CC9456",
"5. c #C49458",
"6. c #CB9659",
"7. c #C59B5E",
"8. c #CB9A5B",
"9. c #D29D5D",
"0. c #D4A05F",
"q. c #CC9E60",
"w. c #C3A463",
"e. c #CDA565",
"r. c #CAAB67",
"t. c #C6A968",
"y. c #CDAD68",
"u. c #D4A462",
"i. c #DAA562",
"p. c #D2AC67",
"a. c #DCAB65",
"s. c #DCAE68",
"d. c #D0AC6A",
"f. c #C6B26D",
"g. c #CEB46C",
"h. c #D3B46D",
"j. c #DEB26B",
"k. c #D0B86E",
"l. c #CFB670",
"z. c #CCBA73",
"x. c #C3BB7D",
"c. c #C8B976",
"v. c #D3BC72",
"b. c #D8BF79",
"n. c #E2AD67",
"m. c #E3B067",
"M. c #E2B36B",
"N. c #E4B96E",
"B. c #EAB96E",
"V. c #E6BC71",
"C. c #ECBD71",
"Z. c #F5BF70",
"A. c #CDC079",
"S. c #DBC67C",
"D. c #D9C97D",
"F. c #D7C074",
"G. c #E5C575",
"H. c #EBC274",
"J. c #E8C877",
"K. c #E2CA7C",
"L. c #EDCC7A",
"P. c #F2C676",
"I. c #F4CC7A",
"U. c #F8CB7A",
"Y. c #E4D17F",
"T. c #EBD17F",
"R. c #F7D47F",
"E. c #BDBB86",
"W. c #CFC886",
"Q. c #C6C488",
"!. c #D5CA80",
"~. c #DFD284",
"^. c #D1CE92",
"/. c #DAD592",
"(. c #E4D181",
"). c #ECDB89",
"_. c #E3D98C",
"`. c #F3D582",
"'. c #F4DD88",
"]. c #E3DD90",
"[. c #F9E48C",
"{. c #E9E59C",
"}. c #EBE390",
"|. c #F7E790",
" X c #F6EA9A",
".X c #FCEF98",
"XX c #FFF196",
"oX c #FFF99F",
"OX c #FCF49E",
"+X c #EDEDAD",
"@X c #F7F5A5",
"#X c #FEF7A1",
"$X c #FFFBA8",
/* pixels */
"                        Z W W H C d 8                           ",
"                  ! &.( O.;.O.O.Q A q q q ,                     ",
"                ~ O.Q.{.}.~.z.f.:.^ Z d q q , ,                 ",
"            W Z <. X+X/.<.1.*.} ^ ! d , % , u , - -             ",
"          ~ Z l.~.^.E.x.c.].).Y.F.>.Q q , - 4 q O O ,           ",
"        Q C F.D.1.Q.+X). XOX|.(.k.w.#.Q b q - - O O ; >         ",
"      J M g.v.,.(.#X.X X$X$X|.Y.k.>.#.$.W b d - . % - - -       ",
"    c b >.r.o.v.Y.S.}.oX@X].(.D.k.y.w.$.W b b u , O - - :       ",
"    N J p.} r.'.f.~ c.XXD.,.c.`.J.h.{ k q 2 2 c b , ; > # ;     ",
"  B b q.$.+.H.I.`.:.,.D.,.,.K.`.J.-.C M M s w m b c > : > -     ",
"  S S @.J p.V.H.I.h.o.&.o.l.R.J.G.{ F  .5.X.I G D b c , 7 > >   ",
"  b ) Q } j.j.G.H.H.w.+.t.L.J.G.j.[ J 8.5.3.X.| ) T T i i t 9   ",
"G c [ S @.s.a.N.V.H.r./ w.C.N.B.e.J J 8.8.6.3.2.` R ` B i s t 6 ",
"G v U M 6.u.i.a.m.N.q.~ q.B.N.j.i. .F  .5.2.R X.2.` R R x x y y ",
"G v P B 8.9.9.i.i.a...] 7.B.j.i.a.u.[ J U S c X.X.` ` 2.x v i x ",
"D v G B 8.6.9.9.u.i.@.[ q.j.j.B.M.M.i...[ U [ 2.` ` 2.X.x v y x ",
"P m V N 6.6.6.9.0.0.i.i.n.M.B.B.C.C.C.B.n.i.0.6.2.2.2.R c c x x ",
"V m I N 3.3.2.4.2.5.@.8.5.M.C.P.P.j.I.C.e.n.q.2.2.X.4.R m V v x ",
"B x I N 2.2.0 n g e f f < n P.R.K 5 } K 3 L g 1 f e R R B I v x ",
"N x I m R 4.N X U 3 g j 1 3 C.`.h _.b.h -.4 f 1 o = R R B I x 6 ",
"  t b v N 2.Y $ 2.1 g n r q.U.`.h Q.%.l L 1 f 1 = X R V V V x   ",
"  x y N s Y Y 8 2.f 0 j @.P.P.[.%.z W.<.3 ] F g N < D x I B x   ",
"  t 7 x t x Y R I P U [  . .p.h.F.~.S.h.e.q.Y 5...Y B x P v 7   ",
"    t 6 y 7 c P B m S U U  .8.e.y.j.e.w.-. .Y | | U v v y c     ",
"    7 > 7 t 6 c D I U ) _ 3.5.9.M.m.m.j.u.6.2.| G p c c c       ",
"      t & t 9 6 s D B D P U Y Y ..7.7...|  .) B p p u u t       ",
"        9 & t 8 > 9 v v b b V D U [  .U P D c q 9 t 9 u         ",
"          7 # * 9 > & 6 u u c P U G S c t 6 9 w 6 7 w           ",
"            , & > 9 > & @ # , t t w > * > 7 7 7 8 ,             ",
"              6 : @ # & > 7 7 9 8 7 * > 7 : , w                 ",
"                  @ # & & ; : 6 9 > & : , > >                   ",
"                        # & > 7 9 8 : &                         "
};
