/* XPM */
static char *_d15a835906a4364fa56f00a3a73aa22QyAlTJMOjqaHaecJ[] = {
/* columns rows colors chars-per-pixel */
"64 64 232 2 ",
"   c None",
".  c #281E14",
"X  c #2E2417",
"o  c #332619",
"O  c #34291A",
"+  c #3C2D1C",
"@  c #322617",
"#  c #3E311F",
"$  c #151B22",
"%  c #191E24",
"&  c #101721",
"*  c #1D2125",
"=  c #242527",
"-  c #2B2A29",
";  c #262827",
":  c #342E29",
">  c #34312C",
",  c #3B362F",
"<  c #3C3425",
"1  c #373633",
"2  c #42311F",
"3  c #432F1E",
"4  c #433422",
"5  c #493622",
"6  c #4B3A24",
"7  c #4D3E28",
"8  c #453A27",
"9  c #523E26",
"0  c #533F29",
"q  c #5A3F26",
"w  c #463C31",
"e  c #4E412A",
"r  c #564127",
"t  c #544229",
"y  c #5B442B",
"u  c #5D4A2E",
"i  c #57452A",
"p  c #4D4234",
"a  c #444439",
"s  c #524333",
"d  c #5B4B33",
"f  c #574934",
"g  c #5B523A",
"h  c #61462B",
"j  c #634A2E",
"k  c #694D2E",
"l  c #654D31",
"z  c #6A4E31",
"x  c #645233",
"c  c #6C5233",
"v  c #6D5936",
"b  c #6E5C3A",
"n  c #68543B",
"m  c #735534",
"M  c #755936",
"N  c #7B5936",
"B  c #725639",
"V  c #745C3A",
"C  c #7C5C3A",
"Z  c #795735",
"A  c #6B502F",
"S  c #74623C",
"D  c #7C623C",
"F  c #78693F",
"G  c #6B623F",
"H  c #56564C",
"J  c #6B5E43",
"K  c #755E41",
"L  c #6C6447",
"P  c #756341",
"I  c #7D6641",
"U  c #7E6B43",
"Y  c #787152",
"T  c #686755",
"R  c #5D6052",
"E  c #815E3A",
"W  c #825D37",
"Q  c #84623C",
"!  c #8B663D",
"~  c #8B693E",
"^  c #81683E",
"/  c #936B3F",
"(  c #836541",
")  c #8A6641",
"_  c #846B43",
"`  c #8D6B43",
"'  c #876F49",
"]  c #936D42",
"[  c #986E44",
"{  c #8C7345",
"}  c #8E734A",
"|  c #887649",
" . c #967145",
".. c #9C7345",
"X. c #93734A",
"o. c #9C764A",
"O. c #947B4C",
"+. c #9C7A4B",
"@. c #987D51",
"#. c #8D7D53",
"$. c #A27546",
"%. c #A47947",
"&. c #A27648",
"*. c #A47B4B",
"=. c #AB7D4B",
"-. c #AB7A47",
";. c #B17F4B",
":. c #A57F50",
">. c #98834E",
",. c #9C8353",
"<. c #9D8A55",
"1. c #9B8C59",
"2. c #938656",
"3. c #918457",
"4. c #AD814D",
"5. c #A4814D",
"6. c #B4834D",
"7. c #BA864E",
"8. c #BC884F",
"9. c #A48351",
"0. c #AB8452",
"q. c #A38A54",
"w. c #AA8B54",
"e. c #A88D59",
"r. c #B48651",
"t. c #BA8750",
"y. c #B48A54",
"u. c #BC8B53",
"i. c #B38F5A",
"p. c #A4945D",
"a. c #AD935B",
"s. c #AA9157",
"d. c #BD9156",
"f. c #B3945B",
"g. c #B49B5E",
"h. c #BA9B5D",
"j. c #BC9258",
"k. c #938C64",
"l. c #AD9C64",
"z. c #A79A63",
"x. c #B89D61",
"c. c #ADA66B",
"v. c #B3A264",
"b. c #BCA163",
"n. c #BBAA6A",
"m. c #B6A76B",
"M. c #B6AE73",
"N. c #BCB578",
"B. c #B2AA72",
"V. c #BCA05F",
"C. c #C28D53",
"Z. c #C88F55",
"A. c #C59256",
"S. c #CA9356",
"D. c #C49559",
"F. c #CB9659",
"G. c #C39A5C",
"H. c #CC9A5C",
"J. c #D19C5C",
"K. c #D3A15F",
"L. c #DBA25E",
"P. c #CA9F61",
"I. c #D29F60",
"U. c #C2A463",
"Y. c #CDA362",
"T. c #CAAE6A",
"R. c #C6AA67",
"E. c #D5A462",
"W. c #D9A662",
"Q. c #D6AB66",
"!. c #DCAB65",
"~. c #D6AD69",
"^. c #CBB36C",
"/. c #C5B36F",
"(. c #D2B36A",
"). c #DDB36A",
"_. c #D9B76C",
"`. c #C3B472",
"'. c #C9BA76",
"]. c #D4BC72",
"[. c #DDBC71",
"{. c #D1B771",
"}. c #E2AD66",
"|. c #E1AE68",
" X c #E3B36B",
".X c #E4BA6E",
"XX c #EBB96E",
"oX c #E9B66C",
"OX c #E5BD71",
"+X c #EABC71",
"@X c #F1BF72",
"#X c #CDC37D",
"$X c #DCC375",
"%X c #DAC77A",
"&X c #E5C274",
"*X c #EBC375",
"=X c #E3CC7B",
"-X c #ECCB7A",
";X c #E9C678",
":X c #F2C476",
">X c #F4CC7B",
",X c #F8CB79",
"<X c #EBD27E",
"1X c #F7D27E",
"2X c #BDBD8E",
"3X c #BFC084",
"4X c #C5C288",
"5X c #D5CC86",
"6X c #DCD489",
"7X c #D1D096",
"8X c #E4D484",
"9X c #EAD582",
"0X c #ECD985",
"qX c #E9DB8B",
"wX c #F2D682",
"eX c #FBD582",
"rX c #F5DC87",
"tX c #E1CF83",
"yX c #F3E28D",
"uX c #FCE48C",
"iX c #FEEA8F",
"pX c #E8E298",
"aX c #F6E994",
"sX c #FCEC94",
"dX c #F5EA97",
"fX c #FCF39B",
"gX c #FFF89A",
"hX c #FEFBA4",
"jX c #FEFCAB",
"kX c #FAF4A4",
"lX c #FAF9B4",
"zX c #F1EEA8",
/* pixels */
"                                                      F >.s.s.g.s.>.{ F r                                                       ",
"                                              z.%X%X].R.s.>.| F F F F { ~ S S b u                                               ",
"                                        c.qX6Xm.F x u g S F F F F v x i 2 + 2 i v D b i                                         ",
"                                    `.yXN.S u G z.#X8X<X=X=X=X].(.h.s.s.S S v x i # i S v t                                     ",
"                                v.%Xa.u G M.dXgXgXaXqX%X#X%X#X^.v.g.s.<.>.>.^ >.^ b u # 2 i M u                                 ",
"                            #.9Xl.i L 5XjXlXzXjX6X%X%X/.c.n.v.v.V.v.<.<./ F F b e u F F x # 6 F v                               ",
"                          v.].b f n.hXlXlXzX7XpX6XN.N./.c.v.p.2.2.<.<.U >.>.v u i r i v F F e O i c 6                           ",
"                      S {.g.# | 9XaXfXlX7X7X7X5XN.3Xc.<.1.z.2.1.<.<.| G g G i # 6 e e i b M x i O + h 6                         ",
"                    D _.| 8 l.<X=X%X6XpX3X5X4XB.c.c.5X6XqX8XqX<X$X^.n.V.s.F i 8 e e e i x b v u 6 + X r l                       ",
"                  } $Xb i ^.=X%X#X4X7X7Xc.M.4X#X%XaXdXgXaXyX0X=X$X$X^.R.U.>.~ F S x 6 4 u x v x 2 6 2 X x D                     ",
"                | [.v u $X$X0X%XN.M.M.2X2XdXdX0X6XfXdXdXaXyX0X=X$X^.V.V.V.s.>.~ ^ / x e e 6 u u 2 4 2 7 X l S                   ",
"              v ^.V i ].^.=X$XN.B.B.3XpXlXlXpX%XpXjXfXaXyXyX9X%X$XU.v.V.V.V.>.{ { F v F x 8 e 8 # + 4 6 t O x c                 ",
"              T.~ e (.$X^.]./.m.c.6XhXhXkXdXyXdXkXjXhXdXyXqX0X=X$X^.U.U.V.V.s.w.>.{ F ^ ^ S r + + 2 5 e i t @ M i               ",
"            j.5.8 V.T.R.$X$Xv.c.0XfXsXyXdXyXdXjXjXjXhXfXaXyX0X=X$X^.T.V.g.h.f.s.s.>./ ^ ^ S v r O < < 4 7 t 6 O M 4             ",
"          +.Y.# q._._.U.R.q.p.=XuXsXuXsXsXyXfXjXjXjXhXgXsXuX9X].R.^.T.V.h.V.h.h.f.w.>.%./ ^ S v u # 2 2 < t j + 6 c             ",
"          K.j S ).(.R.a.p.q.$X0X{./.m./.5XsXfXkXhXpX`.5X/.'.0X$X$X^.(.(.R.R.V.5.^ F A F ~ ~ D M D l 5 8 5 7 t i @ x v           ",
"        r...5 Y.).b.h.x.,.{.wX1X#X2.1.3.n.iXsXsXfX'.`.'.B.'.wX<X=X$X_.(.^.,.I U f V x s d u D Q ^ D j + 4 l t t t + N +         ",
"      m J.5 O.~.G.b.f.q.R.-X>XwXwXn.n.2.n.'.uXsX'.n.M.z.l.0XrX<X=X&X_.Q.@.| _ S I x v 8 j e D ^ ~ D D u 0 h y i y + y y         ",
"      u. .r E.Q.P.e.,.x.*X&X;X<XrX<Xp.p.l.n.iXyX/.`.`.n.$XrX<X<X;X&X&Xs.' } S I V b b n v u Q / ~ Q Q N 7 5 u t h i + A O       ",
"      J.e +.Y.h.i.O.O.).OX*X;X>X>XuXn.l.1./.'.`.z.p.m.p.rXwX<X;X&X&XT.#.,.+. .) +.+. .C c C !  .~ ~ ~ Q M 7 t y l j 4 r 9       ",
"    6.5.6 d.j.w.,.O.G.OX.X&X*X*X-XwX>Xx./.p.l.2.v.a.p.$X<X-X-X;X&X&Xa.O.O.X.+.G.D.d.u.r.&.Q  .o./ ../ ~ ~ c l i h h y 2 Z       ",
"    D.x Q d.G.5.9.+.).)..X.X&X*X*X&X+Xh.,.f.R.e.l.v.^.wX<X-X=X;X;X&Xf.O.O.+.G.G.A.u.8.r.r.;.=.%.5.../ / / Q y c l k Z 5 z k     ",
"  D A.6 4.I.A.+.{ f.).)..X.X&X;X;X*XOX&XR.x.l.f.T.g.-X1X>X<X&X&X&X~.f.+.X.{ K.D.A.A.A.8.t.t.;.;.5.%.%.$./ / N j B E W h q !     ",
"  r.+.y y.5.+.+.{ E.).!.).[..X.X+X*X*X*XOXa.x.b.b.(.>X-X*X*X&X.XoXP.w.5.+.5.K.F.D.A.A.A.u.C.u.;.6.-.-.%.-.4./ M N C Z M 6 ! 0   ",
"  A.M N u.+.X.X.:.!.Q.~.~.)..X.X.X.X&X;X+Xf.,.a.,.&X;XOX.XXX). X!.Y.X.f. .:.J.H.F.Z.Z.A.C.C.u.t.7.;.;.;.7.;.-.Z Z Q M E r N Z   ",
"  D.y ] r.*.:.( y.W.E.Q.!.!.)..X.XOX&XXXOXe.a.a.@.&XOX X.X*X.X!.Q.L.+.+.:.` J.J.F.Z.F.Z.A.A.C.u.C.;.7.;.7.7.;.W B E W E k z /   ",
"~ C.9 =.=.*.} ( A.E.E.E.W.W.!.).). X X.X.Xf.e.f.9.).oX).XXOX.X!.!.!.d.+.:._ 0.I.I.P.S.P.S.t.C.C.C.;.;.7.7.;.7.-.Z ) E E N y ..  ",
"0.;.6 6.r.[ B ( H.J.J.J.K.W.W.!.).!.). X X+.w.O.G.). X.X.X.X XW.L.).d.w.o.+.:.=.u.Z.C.u.X.) r.C.C.t.;.7.;.7.7.7.) E B E ! 9 $.z ",
"r...y =.&...( ] H.J.J.J.J.L.E.W.L.!.W.).W. .9.G.w.). X.X.X).W.!.!.W.!.j.i.:.} y.:.o.&.` ` ) 4.C.t.t.t.t.;.C.C.C.E Z N ! / q ..N ",
"C.! z =...o.) o.J.H.J.J.J.K.K.L.!.L.E.W.K.y.:.w.*.!. X X X!.).).|.!.}.!.w.r.X.u.` o.r.( D ^ y.A.t.t.7.t.C.C.C.8.E E E ! ! h / W ",
"A.Q m ;.&.=.( *.F.F.J.F.J.J.J.K.K.Q.K.W.K.X.5.0.i.W. X|.!. X X X X|. X|.}.j.:.+.:.+.o.o.` ] C.A.u.8.t.t.C.;.C.C.E K ! ! ! h ! ! ",
"C.E z =. .] B *.J.S.S.J.J.J.J.K.K.E.K.W.E.9.y.D.y.). X). X XoXoX X|.|.|.|.|.W.P.j.u.:.y.A.F.S.D.u.t.7.7.C.;.C.t.) B N / ! h Q E ",
"Z.E B ;.*.[ n o.F.F.F.J.F.J.J.J.J.K.I.I.L.W.!.W.}. X). X.X+XOX+X+XoXoXoXoX X X X|.}.L.I.L.F.Z.Z.C.u.y.C.C.t.7.;.] Z Q E ! h ! E ",
"C.W c ;.&.) Q [ F.S.F.D.H.F.J.J.J.J.J.I.I.E.W.W.W.!.|. XoX+X+X+X+X+X+X+X+XoXoXoX|.}.W.W.I.J.P.Z.Z.Z.t.C.Z.;.;.;.] N E E [ k / W ",
"t.) j -.&.*.( [ S.Z.S.S.F.J.F.F.J.J.J.I.W.W.W.W.W.}. X X.X+X+X*X:X:X:X>X@X+X+X+X+X|.|.W.I.I.F.F.D.Z.C.Z.Z.C.;.;.E C [ [ -.k [ Z ",
"-.[ j ;.;.&.E ` F.Z.C.S.C.t.S.S.u.F.F.u.u.d.F.P.A.D.|.+X+X+X@X:X,X1X.XOXeX:XeX@XQ.W.oX|.P.C.P.t.u.Z.;.t.Z.C.C.;.) ) ..&.$.h $.m ",
"[ *.q ;.;.[ ) ) C.C.Z.u.n - 7.r.= o.` = - = ` s = = p Y.:X:X:XeX+XH = - #.rXOXH = - ' +X) - o.: s H.f w C.C.;.;.Z ! ..$...k -.h ",
"Q ;.9 &.$.$.E ( 6.C.C.u.( * ] } * u._ * ` 0.u.1 w :.* _ ,X@XwXeX#.$ l.Y = P.' & e.K % I.' * o.- = =.f 1 C.t.7.;.( [ -.=./ k -.  ",
"  t.q E 7.$.) E ;.C.u.C.C.> w w w L.( * o.C.H.> n }.w J P.>XeXrXL , fX0X#.9XJ > eXi.$ i.X.= o.> % J l - ;.C.C.-.) $.%.-.W Z [   ",
"  ;.z z *.=.[ Q ] C.t.C.S.( * - =.C.K ; = ; r.w > , $ n  XeXeXuXJ a dXgXhXsXJ s eXx.= K K > *.> : w 0 - =.C.C.) E $.;.-.k ! !   ",
"  o.! 5 ....! ! C =.C.C.C.=.- s C.Z.K % K C.F.n - w @.E.:XeXeXrXg H hXqXY tXJ w eXe.$ K ' 1 =.; n > - > =.6.;.E ) ..;.] q $.k   ",
"  Z %.3 ~ ..Q Q B [ t.t.t.&.= s t.F.X.% K J.P.- ' oXXX@X+XeXeXuXa a hX6X1 M.T , *XI $ @.X.1 X.% ) f % , r.t.o.( ] $.-.! k -.    ",
"    =.i j $.~ Q B E ;.;.7.=.= w C.Z.] % = = [ > _  X XoX+XeXeXsXB.1 R H T kXtX1 1 ; ; !.( > ` & :.C $ , -.=.Q E ) ;.;.m E [     ",
"    ! Q 2 / [ Q C z o.;.;.6.l B C.C.o.d K K y.I X.|. XoX+X>XeXeXqXz.T k.5XkXsXa.J J :.oX:.K r.K d.&.d f ] [ B ] ) -.;.k -.M     ",
"      *.4 m ! / N B B -.-.-.;.7.6.6.6.u.=.D.i.S.J.d.P.Y..X).*XOX0XyXuXuXpXeXtXeX:X:XXX|.I.F.F.J.u.y.=.*.=.Q C ) / 7.W m =.      ",
"      ! Z + ! W Z m z B -.$.-.-.=.] E =.) ) :.[ :.=.[ o.Q.e.U.T.T.z.'.;X{.x.l.i.Q.e.0.@.) o.y.Z.u.;.o.=.;.E E ) $.-.h o.N       ",
"      q ..3 h W A A l z ! $...$.%.N c ] ( ` ` +.[ :.o.*.P.P.Y.U.P.x.T.).x.x.x.:.i.@.o.r.o.:.X.u.r.6.=.6.] C E E E A m %.        ",
"        ! N X W C C h z z [ / [ [ $.$.o...=.*.r.y.:.F.P.I.E.|.Y.[.@X+X[.~.;X+XQ.P.!.I.J.Z.r.r.t.r.=.=.Q E [ Q ! W 9 o.Z         ",
"          ] 7 2 Z k z l y l ] ] [ ..%.$.%.=.6.y.6.u.d.D.H.H.I.!.|..X.X X.XoX X).!.E.H.D.A.C.u.4.=.=.C B Q ! ! ..h Q ..          ",
"          z ~ X h M m k l y c / / ] o.$.o.%.*.4.5.4.8.d.6.d.A.G.Q.E.Q.Q.E.Q.Q.K.F.F.A.C.u.r.4.=.*.) x B N C / m j -.y           ",
"            C m . c m m z z i z Q ] ] ....../ %.=.%.4.4.=.6.4.6.u.D.G.K.P.H.H.d.t.d.d.t.6.5.*.*.E V N x D Q W 7 +.Z             ",
"              ] h o Z m c c h y l ~ ] ] / ~ / / ....$.o.%.*.*.$.=.u.A.G.G.d.d.4.=.y.r.0.*.%...E c z C E N N 4  .~               ",
"              y / 9 o c C c y l y 7 Z ) ! / / ! ~ / [ / $...$.$.:.*.r.u.y.y.r.6.&.%.*.*.+.~ l x z B l C M 5 D ]                 ",
"                i ! 5 O Q m y h h y 0 l Q [ E E ~ / ! ! / ] ../ *.=.=.0.4.*.+./ ] .. .! D l l z z z Z C 5 M ]                   ",
"                  y ! 5 X y z z l z y 8 4 l A N ! Q Q W W ! / +.*.*.+.+.o. .o.] ] Q c i l l c m j l k 3 V ~                     ",
"                    0 W 9 . 9 j y c z y 0 4 6 0 h A m Z E Q ] +.o. ... . ...Q c z 0 t y l m A j m q 4 C C                       ",
"                      7 M j . + z M c h h t 0 6 4 2 6 y h v ^ ` ) ) Q C m l 0 8 y j j j z M N c 2 8 ( m                         ",
"                          z E 5 X y c A h t y q 0 6 6 6 4 0 y y t u y 7 4 4 0 h y c z k j z y 2 M ` i                           ",
"                            y C c @ @ y j y y 0 0 q y j l h z l t y y l 0 6 y z y z k i 6 + i _ D 6                             ",
"                                h m 9 X X 3 q i l h h z j z j c x m z l j q y j m j 2 + t I ) u                                 ",
"                                    y j y 2 o O 4 q l y j j m m N C c c y 9 5 3 + 4 f S D z                                     ",
"                                        7 j A j 0 3 + + + 3 5 9 6 9 2 2 + 4 0 x S V l 9                                         ",
"                                              0 h c c M M A A k A M N D S V m x y                                               ",
"                                                      4 t i h x A A k y 2                                                       "
};
